<svg version="1.1" id="Camada_1" xmlns="http://www.w3.org/2000/svg" xmlns:xlink="http://www.w3.org/1999/xlink" x="0px" y="0px"
	 width="137.53px" height="196.57px" viewBox="52.49 26.94 137.53 196.57" enable-background="new 52.49 26.94 137.53 196.57"
	 xml:space="preserve">
<g id="Object">
	<g>
		<path fill="#FAB386" d="M86.87,101.48l1.71,0.11l3.18,23.81c0,0-6.17,6.03-8.99,0.29c-5.86-11.96-8.12-9.51-7.32-19.4
			c0.54-6.6,10.3-6.38,10.3-6.38L86.87,101.48z"/>
		<path fill="#FAB386" d="M152.31,101.31l-1.71,0.12l-3.3,23.83c0,0,6.15,6,8.99,0.24c5.92-11.99,8.16-9.55,7.41-19.44
			c-0.5-6.6-10.27-6.33-10.27-6.33L152.31,101.31z"/>
		<g>
			<g>
				<polygon fill="#FAB386" points="140.56,177.02 99.06,177.02 100.64,143.82 138.97,143.82 				"/>
				<path fill="#FDCBA7" d="M119.81,62.31c-37.3,0-38.37,27.07-36.97,49.06c1.4,21.91,18.55,41.93,36.97,41.93
					c16.68,0,35.57-20.02,36.97-41.93C158.18,89.38,157.11,62.31,119.81,62.31z"/>
				<path fill="#FAB386" d="M181.24,178.53c-5.89-5.74-19.93,0.48-34.87-6.22s-18.72-7.66-26.57-7.66s-11.62,0.96-26.57,7.66
					c-14.94,6.7-28.98,0.48-34.87,6.22c-5.89,5.74-5.89,44.99-5.89,44.99h67.32h67.32C187.13,223.51,187.13,184.27,181.24,178.53z"
					/>
			</g>
			<g>
				<path fill="#F37146" d="M130.45,135.58c-5.75,7.98-15.54,8.04-21.29,0c4.68-1.83,9.52,0.49,10.82,0.49
					C121.35,136.07,125.37,133.61,130.45,135.58z"/>
				<g>
					<g>
						<ellipse fill="#410010" cx="104.1" cy="113.37" rx="3.73" ry="4.85"/>
					</g>
					<g>
						<ellipse fill="#410010" cx="135.28" cy="113.37" rx="3.73" ry="4.85"/>
						<circle fill="#FFFFFF" cx="136.39" cy="110.79" r="1.33"/>
						<circle fill="#FFFFFF" cx="104.92" cy="110.79" r="1.33"/>
					</g>
				</g>
				<g>
					<path fill="#772635" d="M145.69,99.93c-3.22-0.2-8.76-2.89-13.63,1.94c-1.66,1.52-3.59-0.54-1.73-2.11
						C137.39,93.8,150.67,100.24,145.69,99.93z"/>
					<path fill="#772635" d="M93.69,99.93c3.22-0.2,8.76-2.89,13.63,1.94c1.66,1.52,3.59-0.54,1.73-2.11
						C101.99,93.8,88.71,100.24,93.69,99.93z"/>
				</g>
				<g>
					<path fill="#FAB386" d="M119.61,129.85c-2.19,0-4.4-0.42-6.1-1.26c-0.45-0.22-0.63-0.76-0.41-1.21
						c0.22-0.45,0.77-0.63,1.21-0.41c2.9,1.43,7.7,1.43,10.49,0.01c0.45-0.23,0.99-0.05,1.22,0.39c0.23,0.45,0.05,0.99-0.39,1.22
						C123.99,129.43,121.81,129.85,119.61,129.85z"/>
				</g>
			</g>
		</g>
	</g>
	<path fill="#D24C37" d="M145.35,171.86c-1.75-0.78-3.35-1.48-4.81-2.11c0,0.05,0.58,29.73-20.75,29.73s-20.75-29.68-20.75-29.73
		c-1.46,0.62-3.06,1.32-4.81,2.11c-2.52,13.5-21.92,51.66-21.92,51.66h47.48h47.48C167.27,223.51,147.86,185.36,145.35,171.86z"/>
	<g>
		<path fill="#F4B11C" d="M95.07,68.28c0.08,0.1,0.16,0.21,0.24,0.31c1.65-1.16,3.51-2.18,5.58-3.05c0.01,0,0.02-0.01,0.04-0.02
			c0.6-0.25,1.23-0.49,1.87-0.72c0.04-0.01,0.08-0.02,0.11-0.04c0.56-0.19,1.13-0.37,1.72-0.54c0.14-0.04,0.29-0.08,0.43-0.13
			c0.6-0.17,1.22-0.33,1.85-0.48c0.04-0.01,0.09-0.02,0.13-0.03c0.63-0.14,1.28-0.27,1.95-0.39c0.26-0.05,0.52-0.09,0.78-0.13
			c0.44-0.07,0.89-0.14,1.34-0.2c0.29-0.04,0.58-0.08,0.88-0.12c0.64-0.08,1.28-0.14,1.95-0.2c0.41-0.04,0.84-0.06,1.26-0.09
			c0.32-0.02,0.63-0.04,0.95-0.06c0.49-0.03,0.98-0.05,1.48-0.06c0.17,0,0.34-0.01,0.5-0.01c0.56-0.01,1.11-0.03,1.69-0.03
			c1.44,0,2.81,0.05,4.15,0.13c0.01,0,0.03,0,0.04,0c27.42,1.64,32.82,19.56,33.11,37.66c2.83,0.59,6.3,2.09,6.6,5.96
			c0.76,9.89-1.49,7.46-7.41,19.44c-1.03,2.08-2.48,2.62-3.93,2.47c-3.23,6.85-7.95,12.89-13.33,17.35l1.16,24.27
			c1.83,0.78,3.87,1.67,6.17,2.71c14.94,6.7,28.98,0.48,34.87,6.22c0.22,0.21,0.43,0.48,0.63,0.78c16.75-14.1,2.38-35.82,2.38-35.82
			c-1.17,16-20.99,16.91-19.53,1.62s31.19-45.39,19.53-83.73C172.62,23,110.24,18.67,95.07,38.69
			C79.18,59.68,95.07,68.28,95.07,68.28z"/>
		<path fill="#EE2A7B" d="M93.39,63.7c0,0-4.99-15.13,22.6-16.79s38.9,11.3,35.57,19.57L93.39,63.7z"/>
		<path fill="#F4B11C" d="M137.43,83.92c0,0-26.27,27.47-56.61,31.4c0,0-12.65-45.89,18.2-60.08s49.87,7.05,49.87,7.05
			s25.66,5.93,11.77,49.6C160.68,111.89,137.43,96.6,137.43,83.92z"/>
	</g>
</g>
</svg>
