<svg enable-background="new 0 0 32 32" height="32" viewBox="0 0 32 32" width="32" xmlns="http://www.w3.org/2000/svg"><path d="m26 32h-20c-3.314 0-6-2.686-6-6v-20c0-3.314 2.686-6 6-6h20c3.314 0 6 2.686 6 6v20c0 3.314-2.686 6-6 6z" fill="#fff9dd"/><path d="m16.193 22.333c2.487 0 5.96.06 7.224-2.467.476-.966.583-2.082.583-3.134h-.001c0-1.382-.383-2.698-1.3-3.767.17-.511.257-1.049.257-1.59 0-.709-.16-1.065-.486-1.709-1.493 0-2.46.28-3.593 1.161-.873-.208-1.78-.303-2.68-.303-.997 0-1.99.103-2.957.33-1.15-.891-2.117-1.188-3.627-1.188-.323.643-.486.999-.486 1.709 0 .54.083 1.088.257 1.609-.92 1.06-1.384 2.366-1.384 3.748 0 1.052.187 2.177.673 3.134 1.314 2.556 4.994 2.467 7.52 2.467zm-3.526-6.66c.634 0 1.243.112 1.867.198 2.279.347 3.476-.198 4.873-.198 1.559 0 2.45 1.277 2.45 2.725 0 2.899-2.677 3.341-5.02 3.341h-1.606c-2.333 0-5.013-.445-5.013-3.341-.001-1.448.889-2.725 2.449-2.725z" fill="#ffd200"/><g fill="#ffe777"><path d="m19.103 20.215c.86 0 1.223-1.128 1.223-1.818s-.363-1.818-1.223-1.818-1.223 1.128-1.223 1.818.364 1.818 1.223 1.818z"/><path d="m12.98 20.215c.86 0 1.223-1.128 1.223-1.818s-.363-1.817-1.223-1.817-1.223 1.128-1.223 1.818.363 1.817 1.223 1.817z"/></g></svg>